<?xml version="1.0" encoding="utf-8"?>
<!-- Generator: Adobe Illustrator 15.0.0, SVG Export Plug-In . SVG Version: 6.00 Build 0)  -->
<!DOCTYPE svg PUBLIC "-//W3C//DTD SVG 1.0//EN" "http://www.w3.org/TR/2001/REC-SVG-20010904/DTD/svg10.dtd">
<svg version="1.0" id="Layer_1" xmlns="http://www.w3.org/2000/svg" xmlns:xlink="http://www.w3.org/1999/xlink" x="0px" y="0px"
	 width="800px" height="800px" viewBox="0 0 800 800" enable-background="new 0 0 800 800" xml:space="preserve">
<rect fill="#C83D1A" width="800" height="800"/>
<g>
	<defs>
		<rect id="SVGID_1_" width="800" height="800"/>
	</defs>
	<clipPath id="SVGID_2_">
		<use xlink:href="#SVGID_1_"  overflow="visible"/>
	</clipPath>
	<path clip-path="url(#SVGID_2_)" fill="#FFFFFF" d="M361.686,308.975l-72.985,20.301c-0.875,0.237-1.646,0.748-2.229,1.442
		l-51.912,62.425c-0.669,0.811-1.024,1.811-1.024,2.835c0,0.441,0.063,0.866,0.197,1.299c0.441,1.433,1.567,2.544,3,2.961
		l73.695,21.444c-0.63,15.624,2.945,29.413,10.741,40.761l-23.341,28.413c-1.473,1.803-1.323,4.425,0.37,6.04l22.199,21.097
		c0.859,0.819,2.016,1.252,3.213,1.213c1.19-0.04,2.316-0.56,3.119-1.44l25.798-28.13c6.552,2.401,22.877,6.71,47.715,2.142
		l26.396,72.293c0.512,1.409,1.701,2.457,3.158,2.795c1.457,0.347,2.984-0.079,4.071-1.11l58.811-55.976
		c0.686-0.653,1.143-1.496,1.315-2.433l13.183-73.734c16.041-13.875,32.271-30.019,48.273-47.998
		c92.122-103.525,105.872-184.448,105.872-223.469c0-12.844-1.56-19.923-1.622-20.223c-0.395-1.756-1.812-3.095-3.584-3.402
		c-4.583-0.787-113.793-17.624-255.913,124.496C400.021,263.205,381.555,282.255,361.686,308.975 M441.129,315.692
		c0-24.728,20.042-44.769,44.769-44.769c24.729,0,44.771,20.041,44.771,44.769c0,24.727-20.042,44.769-44.771,44.769
		C461.171,360.461,441.129,340.42,441.129,315.692"/>
</g>
<g>
	<defs>
		<rect id="SVGID_3_" y="383.592" width="365.593" height="416.408"/>
	</defs>
	<clipPath id="SVGID_4_">
		<use xlink:href="#SVGID_3_"  overflow="visible"/>
	</clipPath>
	<path clip-path="url(#SVGID_4_)" fill="#FFFFFF" d="M297.141,535.009l-521.095,521.095c-3.128,3.128-8.201,3.128-11.33,0
		l-5.639-5.64c-3.129-3.129-3.129-8.201,0-11.33l521.094-521.095c3.129-3.128,8.202-3.128,11.33,0l5.64,5.64
		C300.27,526.808,300.27,531.88,297.141,535.009"/>
	<path clip-path="url(#SVGID_4_)" fill="#FFFFFF" d="M289.642,601.356l-521.095,521.095c-3.128,3.128-8.201,3.128-11.33,0
		l-5.639-5.64c-3.129-3.129-3.129-8.201,0-11.33l521.094-521.095c3.129-3.128,8.202-3.128,11.33,0l5.64,5.64
		C292.771,593.155,292.771,598.228,289.642,601.356"/>
	<path clip-path="url(#SVGID_4_)" fill="#FFFFFF" d="M225.029,545.352l-521.095,521.095c-3.128,3.128-8.201,3.128-11.33,0
		l-5.639-5.64c-3.129-3.129-3.129-8.201,0-11.33l521.094-521.095c3.129-3.128,8.202-3.128,11.33,0l5.64,5.64
		C228.158,537.15,228.158,542.223,225.029,545.352"/>
</g>
</svg>
